<mxfile host="app.diagrams.net" agent="Mozilla/5.0 (X11; Linux x86_64) AppleWebKit/537.36 (KHTML, like Gecko) Chrome/132.0.0.0 Safari/537.36" version="26.0.9">
  <diagram name="Page-1" id="5wAMG9E5P6GPc10q6z6D">
    <mxGraphModel dx="1605" dy="2033" grid="1" gridSize="10" guides="1" tooltips="1" connect="1" arrows="1" fold="1" page="1" pageScale="1" pageWidth="850" pageHeight="1100" math="0" shadow="0">
      <root>
        <mxCell id="0" />
        <mxCell id="1" parent="0" />
        <mxCell id="PDYOUw3N7V2ap73ZXzcy-3" value="" style="edgeStyle=orthogonalEdgeStyle;rounded=0;orthogonalLoop=1;jettySize=auto;html=1;" edge="1" parent="1" source="PDYOUw3N7V2ap73ZXzcy-15" target="PDYOUw3N7V2ap73ZXzcy-2">
          <mxGeometry relative="1" as="geometry" />
        </mxCell>
        <mxCell id="PDYOUw3N7V2ap73ZXzcy-1" value="START" style="ellipse;whiteSpace=wrap;html=1;" vertex="1" parent="1">
          <mxGeometry x="390" y="-120" width="120" height="80" as="geometry" />
        </mxCell>
        <mxCell id="PDYOUw3N7V2ap73ZXzcy-17" value="" style="edgeStyle=orthogonalEdgeStyle;rounded=0;orthogonalLoop=1;jettySize=auto;html=1;" edge="1" parent="1" source="PDYOUw3N7V2ap73ZXzcy-2" target="PDYOUw3N7V2ap73ZXzcy-13">
          <mxGeometry relative="1" as="geometry" />
        </mxCell>
        <mxCell id="PDYOUw3N7V2ap73ZXzcy-2" value="READ N" style="shape=parallelogram;perimeter=parallelogramPerimeter;whiteSpace=wrap;html=1;fixedSize=1;" vertex="1" parent="1">
          <mxGeometry x="390" y="110" width="120" height="60" as="geometry" />
        </mxCell>
        <mxCell id="PDYOUw3N7V2ap73ZXzcy-9" value="" style="edgeStyle=orthogonalEdgeStyle;rounded=0;orthogonalLoop=1;jettySize=auto;html=1;" edge="1" parent="1" source="PDYOUw3N7V2ap73ZXzcy-7" target="PDYOUw3N7V2ap73ZXzcy-8">
          <mxGeometry relative="1" as="geometry" />
        </mxCell>
        <mxCell id="PDYOUw3N7V2ap73ZXzcy-7" value="WRITE &quot;Error n negativo&quot;" style="shape=parallelogram;perimeter=parallelogramPerimeter;whiteSpace=wrap;html=1;fixedSize=1;" vertex="1" parent="1">
          <mxGeometry x="590" y="230" width="120" height="60" as="geometry" />
        </mxCell>
        <mxCell id="PDYOUw3N7V2ap73ZXzcy-8" value="EXIT" style="ellipse;whiteSpace=wrap;html=1;" vertex="1" parent="1">
          <mxGeometry x="610" y="590" width="80" height="80" as="geometry" />
        </mxCell>
        <mxCell id="PDYOUw3N7V2ap73ZXzcy-18" value="" style="edgeStyle=orthogonalEdgeStyle;rounded=0;orthogonalLoop=1;jettySize=auto;html=1;" edge="1" parent="1" source="PDYOUw3N7V2ap73ZXzcy-13" target="PDYOUw3N7V2ap73ZXzcy-7">
          <mxGeometry relative="1" as="geometry" />
        </mxCell>
        <mxCell id="PDYOUw3N7V2ap73ZXzcy-19" value="FALSE" style="edgeLabel;html=1;align=center;verticalAlign=middle;resizable=0;points=[];" vertex="1" connectable="0" parent="PDYOUw3N7V2ap73ZXzcy-18">
          <mxGeometry x="-0.2364" y="2" relative="1" as="geometry">
            <mxPoint as="offset" />
          </mxGeometry>
        </mxCell>
        <mxCell id="PDYOUw3N7V2ap73ZXzcy-21" value="" style="edgeStyle=orthogonalEdgeStyle;rounded=0;orthogonalLoop=1;jettySize=auto;html=1;" edge="1" parent="1" source="PDYOUw3N7V2ap73ZXzcy-13" target="PDYOUw3N7V2ap73ZXzcy-20">
          <mxGeometry relative="1" as="geometry" />
        </mxCell>
        <mxCell id="PDYOUw3N7V2ap73ZXzcy-37" value="TRUE" style="edgeLabel;html=1;align=center;verticalAlign=middle;resizable=0;points=[];" vertex="1" connectable="0" parent="PDYOUw3N7V2ap73ZXzcy-21">
          <mxGeometry x="-0.0897" y="3" relative="1" as="geometry">
            <mxPoint as="offset" />
          </mxGeometry>
        </mxCell>
        <mxCell id="PDYOUw3N7V2ap73ZXzcy-13" value="N&amp;gt;0" style="rhombus;whiteSpace=wrap;html=1;" vertex="1" parent="1">
          <mxGeometry x="410" y="220" width="80" height="80" as="geometry" />
        </mxCell>
        <mxCell id="PDYOUw3N7V2ap73ZXzcy-16" value="" style="edgeStyle=orthogonalEdgeStyle;rounded=0;orthogonalLoop=1;jettySize=auto;html=1;" edge="1" parent="1" source="PDYOUw3N7V2ap73ZXzcy-1" target="PDYOUw3N7V2ap73ZXzcy-15">
          <mxGeometry relative="1" as="geometry">
            <mxPoint x="450" y="-40" as="sourcePoint" />
            <mxPoint x="450" y="260" as="targetPoint" />
          </mxGeometry>
        </mxCell>
        <mxCell id="PDYOUw3N7V2ap73ZXzcy-15" value="I =1" style="rounded=1;whiteSpace=wrap;html=1;" vertex="1" parent="1">
          <mxGeometry x="390" y="10" width="120" height="60" as="geometry" />
        </mxCell>
        <mxCell id="PDYOUw3N7V2ap73ZXzcy-23" value="" style="edgeStyle=orthogonalEdgeStyle;rounded=0;orthogonalLoop=1;jettySize=auto;html=1;" edge="1" parent="1" source="PDYOUw3N7V2ap73ZXzcy-20" target="PDYOUw3N7V2ap73ZXzcy-22">
          <mxGeometry relative="1" as="geometry" />
        </mxCell>
        <mxCell id="PDYOUw3N7V2ap73ZXzcy-20" value="N=I**2" style="rhombus;whiteSpace=wrap;html=1;" vertex="1" parent="1">
          <mxGeometry x="410" y="380" width="80" height="80" as="geometry" />
        </mxCell>
        <mxCell id="PDYOUw3N7V2ap73ZXzcy-25" value="" style="edgeStyle=orthogonalEdgeStyle;rounded=0;orthogonalLoop=1;jettySize=auto;html=1;" edge="1" parent="1" source="PDYOUw3N7V2ap73ZXzcy-22">
          <mxGeometry relative="1" as="geometry">
            <mxPoint x="450" y="580" as="targetPoint" />
          </mxGeometry>
        </mxCell>
        <mxCell id="PDYOUw3N7V2ap73ZXzcy-22" value="I+=1&lt;div&gt;&lt;div&gt;&lt;br&gt;&lt;/div&gt;&lt;/div&gt;" style="whiteSpace=wrap;html=1;" vertex="1" parent="1">
          <mxGeometry x="390" y="490" width="120" height="60" as="geometry" />
        </mxCell>
        <mxCell id="PDYOUw3N7V2ap73ZXzcy-28" value="" style="edgeStyle=orthogonalEdgeStyle;rounded=0;orthogonalLoop=1;jettySize=auto;html=1;" edge="1" parent="1" source="PDYOUw3N7V2ap73ZXzcy-26" target="PDYOUw3N7V2ap73ZXzcy-27">
          <mxGeometry relative="1" as="geometry" />
        </mxCell>
        <mxCell id="PDYOUw3N7V2ap73ZXzcy-33" value="" style="edgeStyle=orthogonalEdgeStyle;rounded=0;orthogonalLoop=1;jettySize=auto;html=1;" edge="1" parent="1" source="PDYOUw3N7V2ap73ZXzcy-26" target="PDYOUw3N7V2ap73ZXzcy-32">
          <mxGeometry relative="1" as="geometry" />
        </mxCell>
        <mxCell id="PDYOUw3N7V2ap73ZXzcy-26" value="I==N" style="rhombus;whiteSpace=wrap;html=1;" vertex="1" parent="1">
          <mxGeometry x="410" y="590" width="80" height="80" as="geometry" />
        </mxCell>
        <mxCell id="PDYOUw3N7V2ap73ZXzcy-30" value="" style="edgeStyle=orthogonalEdgeStyle;rounded=0;orthogonalLoop=1;jettySize=auto;html=1;" edge="1" parent="1" source="PDYOUw3N7V2ap73ZXzcy-27" target="PDYOUw3N7V2ap73ZXzcy-29">
          <mxGeometry relative="1" as="geometry" />
        </mxCell>
        <mxCell id="PDYOUw3N7V2ap73ZXzcy-27" value="" style="shape=waypoint;sketch=0;size=6;pointerEvents=1;points=[];fillColor=default;resizable=0;rotatable=0;perimeter=centerPerimeter;snapToPoint=1;" vertex="1" parent="1">
          <mxGeometry x="280" y="620" width="20" height="20" as="geometry" />
        </mxCell>
        <mxCell id="PDYOUw3N7V2ap73ZXzcy-31" value="" style="edgeStyle=orthogonalEdgeStyle;rounded=0;orthogonalLoop=1;jettySize=auto;html=1;" edge="1" parent="1" source="PDYOUw3N7V2ap73ZXzcy-29" target="PDYOUw3N7V2ap73ZXzcy-20">
          <mxGeometry relative="1" as="geometry" />
        </mxCell>
        <mxCell id="PDYOUw3N7V2ap73ZXzcy-29" value="" style="shape=waypoint;sketch=0;size=6;pointerEvents=1;points=[];fillColor=default;resizable=0;rotatable=0;perimeter=centerPerimeter;snapToPoint=1;" vertex="1" parent="1">
          <mxGeometry x="280" y="410" width="20" height="20" as="geometry" />
        </mxCell>
        <mxCell id="PDYOUw3N7V2ap73ZXzcy-35" value="" style="edgeStyle=orthogonalEdgeStyle;rounded=0;orthogonalLoop=1;jettySize=auto;html=1;" edge="1" parent="1" source="PDYOUw3N7V2ap73ZXzcy-32" target="PDYOUw3N7V2ap73ZXzcy-34">
          <mxGeometry relative="1" as="geometry" />
        </mxCell>
        <mxCell id="PDYOUw3N7V2ap73ZXzcy-32" value="WRITE N" style="shape=parallelogram;perimeter=parallelogramPerimeter;whiteSpace=wrap;html=1;fixedSize=1;" vertex="1" parent="1">
          <mxGeometry x="390" y="730" width="120" height="60" as="geometry" />
        </mxCell>
        <mxCell id="PDYOUw3N7V2ap73ZXzcy-36" value="" style="edgeStyle=orthogonalEdgeStyle;rounded=0;orthogonalLoop=1;jettySize=auto;html=1;" edge="1" parent="1" source="PDYOUw3N7V2ap73ZXzcy-34" target="PDYOUw3N7V2ap73ZXzcy-8">
          <mxGeometry relative="1" as="geometry" />
        </mxCell>
        <mxCell id="PDYOUw3N7V2ap73ZXzcy-34" value="" style="shape=waypoint;sketch=0;size=6;pointerEvents=1;points=[];fillColor=default;resizable=0;rotatable=0;perimeter=centerPerimeter;snapToPoint=1;" vertex="1" parent="1">
          <mxGeometry x="640" y="750" width="20" height="20" as="geometry" />
        </mxCell>
      </root>
    </mxGraphModel>
  </diagram>
</mxfile>
